HIERARCHY
ROOT pelvis
{
	OFFSET 0.000000 0.000000 0.000000
	CHANNELS 6 Xposition Yposition Zposition Zrotation Xrotation Yrotation
	JOINT lfemur
	{
		OFFSET 11.446000 0.000000 0.000000
		CHANNELS 3 Zrotation Xrotation Yrotation
		JOINT ltibia
		{
			OFFSET 0.000000 -42.030400 0.000000
			CHANNELS 3 Zrotation Xrotation Yrotation
			JOINT lfoot
			{
				OFFSET 0.000000 -39.930200 0.000000
				CHANNELS 3 Zrotation Xrotation Yrotation
				JOINT ltoes
				{
					OFFSET 0.000000 0.000000 11.775800
					CHANNELS 3 Zrotation Xrotation Yrotation
					End Site
					{
					    OFFSET 0.000000 0.000000 5.000000
					}
				}
			}
		}
	}
	JOINT rfemur
	{
		OFFSET -11.446000 0.000000 0.000000
		CHANNELS 3 Zrotation Xrotation Yrotation
		JOINT rtibia
		{
			OFFSET 0.000000 -42.030400 0.000000
			CHANNELS 3 Zrotation Xrotation Yrotation
			JOINT rfoot
			{
				OFFSET 0.000000 -39.930200 0.000000
				CHANNELS 3 Zrotation Xrotation Yrotation
				JOINT rtoes
				{
					OFFSET 0.000000 0.000000 11.775800
					CHANNELS 3 Zrotation Xrotation Yrotation
					End Site
					{
					    OFFSET 0.000000 0.000000 5.000000
					}
				}
			}
		}
	}
	JOINT thorax
	{
		OFFSET 0.000000 11.255600 -5.000000
		CHANNELS 3 Zrotation Xrotation Yrotation
		JOINT head
		{
			OFFSET 0.000000 43.799300 0.000000
			CHANNELS 3 Zrotation Xrotation Yrotation
			End Site
			{
			    OFFSET 0.000000 5.000000 0.000000
			}
		}
		JOINT lclavicle
		{
			OFFSET 0.000000 39.863000 0.000000
			CHANNELS 3 Zrotation Xrotation Yrotation
			JOINT lhumerus
			{
				OFFSET 17.380600 4.958300 0.000000
				CHANNELS 3 Zrotation Xrotation Yrotation
				JOINT lradius
				{
					OFFSET 0.000000 -27.561300 0.000000
					CHANNELS 3 Zrotation Xrotation Yrotation
					JOINT lhand
					{
						OFFSET 0.000000 -26.933000 0.000000
						CHANNELS 3 Zrotation Xrotation Yrotation
						End Site
						{
						    OFFSET 0.000000 -5.000000 0.000000
						}
					}
				}
			}
		}
		JOINT rclavicle
		{
			OFFSET 0.000000 39.863000 0.000000
			CHANNELS 3 Zrotation Xrotation Yrotation
			JOINT rhumerus
			{
				OFFSET -17.380600 4.958300 0.000000
				CHANNELS 3 Zrotation Xrotation Yrotation
				JOINT rradius
				{
					OFFSET 0.000000 -27.561300 0.000000
					CHANNELS 3 Zrotation Xrotation Yrotation
					JOINT rhand
					{
						OFFSET 0.000000 -26.933000 0.000000
						CHANNELS 3 Zrotation Xrotation Yrotation
						End Site
						{
						    OFFSET 0.000000 -5.000000 0.000000
						}
					}
				}
			}
		}
	}
}
MOTION
Frames:	15
Frame Time:	0.0333333
62.213500 87.484700 3.544900 -1.610215 -2.986972 -91.097430 -8.890017 -2.220200 -7.193854 0.000000 17.622623 -0.000000 -0.000000 2.655966 9.479944 0.000000 -1.337072 0.000000 -3.868362 -2.141840 -1.149155 -0.000000 19.703252 0.000000 -0.000000 -0.090107 -0.867263 -0.000000 -29.550270 0.000000 -6.297757 2.932366 -0.170579 17.729907 22.248118 -0.237014 5.851092 0.000000 5.680678 85.886440 -3.756741 65.318935 0.000000 -15.146470 -59.877433 7.164068 1.817975 0.000000 -11.423606 0.000000 -2.174761 -75.098080 6.289889 -71.438416 -0.000000 -23.874560 45.715968 -9.456854 -0.184852 -0.000000 
62.299100 87.485900 3.549000 -1.602735 -2.983292 -91.059931 -8.897790 -2.294391 -7.331298 -0.000000 17.654007 -0.000000 -0.000000 2.671795 9.489503 0.000000 -1.337890 0.000000 -3.865424 -2.225068 -1.141484 0.000000 19.825397 -0.000000 -0.000000 -0.036454 -0.866422 -0.000000 -29.550454 -0.000000 -6.263523 3.057072 -0.255081 17.629503 22.251683 -0.161836 5.925898 0.000000 5.789702 85.865034 -4.030278 66.061581 -0.000001 -14.962989 -60.509141 7.518253 1.796298 -0.000000 -11.721663 0.000000 -2.513924 -74.798755 5.922636 -71.292120 0.000001 -23.974381 45.845761 -9.812190 -0.064376 0.000000 
62.386700 87.475700 3.548200 -1.638282 -3.030119 -91.104188 -8.923508 -2.318834 -7.231899 0.000000 17.636939 0.000000 0.000000 2.728056 9.417479 -0.000000 -1.339012 0.000000 -3.902782 -2.307965 -1.051095 0.000000 19.865292 0.000000 -0.000000 -0.137189 -0.884316 -0.000000 -29.550888 -0.000000 -6.323126 3.142178 -0.292675 17.565654 22.330567 -0.085317 6.032541 0.000000 5.969676 85.809898 -4.238390 66.239433 -0.000001 -14.957189 -60.791711 7.448816 1.799740 -0.000000 -11.834733 -0.000000 -2.406208 -74.663171 6.041833 -71.419575 0.000001 -24.277094 45.538650 -9.427497 -0.194620 0.000000 
62.473900 87.469600 3.552300 -1.727216 -3.035034 -91.095864 -8.929929 -2.325249 -7.236058 -0.000000 17.705500 -0.000000 -0.000000 2.726282 9.410428 0.000000 -1.339409 -0.000000 -3.906683 -2.306067 -1.000367 0.000000 19.949793 -0.000000 -0.000000 -0.143879 -0.913027 -0.000000 -29.550287 0.000000 -6.368148 3.200430 -0.123313 17.678214 22.222933 -0.155782 6.173525 0.000000 6.142953 85.700216 -4.620129 65.925575 0.000000 -14.992406 -60.796819 7.861447 1.881352 -0.000000 -11.659993 -0.000000 -2.982286 -75.097289 5.683430 -70.819920 -0.000001 -24.008854 45.237258 -9.788786 -0.072879 0.000000 
62.560800 87.470400 3.516600 -1.714334 -3.037121 -90.992195 -8.901938 -2.440503 -7.219964 0.000000 17.790838 -0.000000 0.000000 2.783151 9.297511 -0.000000 -1.340864 0.000000 -3.864277 -2.359899 -0.993242 -0.000000 19.944527 -0.000000 -0.000000 -0.164216 -1.012101 0.000000 -29.550266 -0.000000 -6.419380 3.284251 -0.427298 17.568009 22.564354 0.115325 6.090861 -0.000000 5.746635 85.801278 -3.921034 65.649079 -0.000001 -15.186722 -60.583372 7.399288 1.684546 -0.000000 -11.790632 -0.000000 -2.118867 -74.759687 6.521441 -70.962864 0.000001 -24.324271 45.239781 -8.968512 -0.350761 0.000000 
62.656500 87.465200 3.474000 -1.720104 -3.038096 -90.918591 -8.867604 -2.531485 -7.207704 -0.000000 17.863356 -0.000000 -0.000000 2.791771 9.162259 -0.000000 -1.339495 -0.000000 -3.804388 -2.431372 -0.895910 0.000000 19.993744 -0.000000 -0.000000 -0.157316 -1.175138 -0.000000 -29.549689 -0.000000 -6.531091 3.328830 -0.523789 17.691236 22.540088 0.026099 6.181461 -0.000000 5.829002 85.788803 -4.088428 65.904128 -0.000001 -15.154375 -60.574792 7.417806 1.736297 -0.000000 -11.810899 -0.000000 -2.206031 -74.735270 6.226601 -71.211512 -0.000001 -24.111673 45.277553 -9.271372 -0.247121 0.000000 
62.730500 87.463900 3.419400 -1.765311 -3.025414 -90.835451 -8.815458 -2.570199 -7.224215 -0.000000 17.929945 -0.000000 0.000000 2.774627 9.106046 0.000000 -1.340142 0.000000 -3.736729 -2.421714 -0.846189 -0.000000 20.010136 -0.000000 0.000000 -0.158223 -1.325748 0.000000 -29.549399 -0.000000 -6.617152 3.425952 -0.549268 17.728743 22.506889 0.077569 6.167842 0.000000 5.938733 85.905704 -4.347296 66.123991 -0.000003 -15.029939 -60.483438 7.411250 1.748563 -0.000000 -11.820826 -0.000000 -2.377978 -74.644965 6.073522 -70.982467 -0.000001 -24.158721 45.158197 -9.702232 -0.102082 -0.000000 
62.772400 87.468100 3.367400 -1.841269 -3.048605 -90.820261 -8.760790 -2.563398 -7.122581 -0.000000 18.057822 -0.000000 0.000000 2.754250 8.817084 -0.000000 -1.336555 0.000000 -3.720553 -2.384087 -0.825480 -0.000000 20.033299 -0.000000 -0.000000 -0.188745 -1.340846 -0.000000 -29.549204 -0.000000 -6.747003 3.434093 -0.563227 17.836979 22.651997 -0.120732 6.184525 0.000000 5.735107 85.829455 -4.040024 65.771783 0.000000 -15.088601 -60.403769 7.583089 1.880578 0.000000 -11.730086 -0.000000 -1.959954 -74.652339 6.560493 -70.778965 -0.000000 -24.252056 45.100961 -9.525380 -0.161600 0.000000 
62.820900 87.465200 3.305400 -1.867261 -2.992916 -90.755860 -8.720486 -2.551367 -7.326199 0.000000 17.967810 -0.000000 -0.000000 2.812250 9.150807 0.000000 -1.335491 0.000000 -3.636050 -2.396198 -0.969224 0.000000 20.067841 -0.000000 -0.000000 -0.166118 -1.266577 -0.000000 -29.549044 0.000000 -6.784686 3.455834 -0.568302 17.870231 22.655109 -0.201081 6.139936 -0.000000 5.703620 85.761587 -3.940697 65.412632 0.000000 -15.261770 -60.355219 7.206410 1.916863 0.000000 -11.836436 -0.000000 -2.258358 -74.497577 6.066267 -71.062836 -0.000000 -24.113751 45.393466 -9.437147 -0.192028 0.000000 
62.860400 87.460400 3.229200 -1.936677 -2.970217 -90.769940 -8.662753 -2.560444 -7.361786 0.000000 18.070989 0.000000 -0.000000 2.770509 9.160060 0.000000 -1.338062 -0.000000 -3.556580 -2.388107 -0.930529 0.000000 20.140130 -0.000000 0.000000 -0.243782 -1.250694 -0.000000 -29.548699 -0.000000 -6.860559 3.491611 -0.491748 17.948661 22.684802 -0.354886 6.005169 -0.000000 5.785682 85.879006 -4.044528 65.189229 0.000000 -15.236769 -59.670454 7.289609 1.966625 0.000000 -11.827251 0.000000 -2.160136 -74.422251 6.210044 -71.022586 0.000001 -24.132657 45.427930 -9.356179 -0.219966 -0.000000 
62.912000 87.442800 3.171600 -1.951217 -2.955327 -90.752648 -8.620079 -2.665494 -7.389988 -0.000000 18.254345 -0.000000 0.000000 2.691918 9.173283 -0.000000 -1.339262 -0.000000 -3.549938 -2.475822 -1.200930 -0.000000 20.276141 0.000000 -0.000000 -0.258639 -1.114033 -0.000000 -29.548982 -0.000000 -6.916940 3.561602 -0.494970 18.031069 22.667224 -0.464307 5.760122 -0.000000 5.876747 86.187922 -4.055786 65.307817 -0.000001 -15.007672 -60.261054 7.208825 1.838345 0.000000 -11.967686 0.000000 -2.296387 -74.307338 5.924636 -71.169522 0.000001 -24.014608 45.569246 -9.716247 -0.097106 -0.000000 
62.916500 87.435200 3.097300 -2.038465 -2.943209 -90.681342 -8.561490 -2.640585 -7.405692 -0.000000 18.369219 -0.000000 -0.000000 2.641529 9.124279 -0.000000 -1.340721 -0.000000 -3.485320 -2.447340 -1.201905 0.000000 20.451230 -0.000000 -0.000000 -0.426666 -1.141646 -0.000000 -29.548641 -0.000000 -7.026118 3.560825 -0.463611 18.130014 22.805388 -0.576999 5.649137 0.000000 5.938885 86.297031 -4.181643 65.546567 -0.000001 -15.059299 -60.378977 7.021946 1.863785 -0.000000 -11.995978 -0.000000 -2.281535 -74.196629 5.973476 -71.124057 0.000000 -24.108927 45.251358 -9.898896 -0.035339 -0.000000 
62.914800 87.431100 3.025800 -2.082091 -2.983043 -90.517762 -8.556149 -2.620401 -7.509801 -0.000000 18.416033 -0.000000 -0.000000 2.682611 9.067596 0.000000 -1.343841 -0.000000 -3.483149 -2.407227 -1.325684 -0.000000 20.516965 -0.000000 -0.000000 -0.504306 -1.158157 -0.000000 -29.548600 0.000000 -7.178156 3.550126 -0.478384 18.243157 22.910310 -0.706994 5.632011 0.000000 6.007890 86.240274 -4.292523 65.322774 0.000000 -15.140616 -60.189410 7.147275 1.870455 0.000000 -12.018918 0.000000 -2.244759 -74.189695 6.123254 -71.316156 -0.000000 -24.016339 45.730636 -9.501111 -0.170657 -0.000000 
62.879700 87.424200 2.936100 -2.159865 -3.034605 -90.283896 -8.533907 -2.506641 -7.615529 0.000000 18.388663 -0.000000 0.000000 2.654201 8.935713 -0.000000 -1.341798 -0.000000 -3.455653 -2.294057 -1.375209 0.000000 20.599278 0.000000 -0.000000 -0.634555 -1.312340 -0.000000 -29.548511 -0.000000 -7.373412 3.557036 -0.545419 18.394804 23.009376 -0.809474 5.640751 0.000000 5.860691 86.229216 -4.151997 65.411905 -0.000000 -15.151155 -60.460467 7.197367 1.894287 0.000000 -12.079387 -0.000000 -2.296340 -74.087125 6.086741 -71.640822 0.000001 -24.039490 45.582128 -9.063075 -0.318584 0.000000 
62.853900 87.429000 2.844200 -2.219153 -3.066787 -90.035221 -8.510885 -2.383142 -7.835009 0.000000 18.300536 0.000000 -0.000000 2.691712 8.938085 -0.000000 -1.346119 -0.000000 -3.425033 -2.153874 -1.580906 -0.000000 20.589201 -0.000000 0.000000 -0.675826 -1.369681 -0.000000 -29.547760 -0.000000 -7.528459 3.598774 -0.594677 18.495924 23.028549 -0.895287 5.575935 -0.000000 5.969149 86.311383 -4.436098 65.609847 -0.000000 -15.016468 -60.592266 7.343413 1.753101 0.000000 -11.940849 0.000000 -2.430189 -74.184850 6.084437 -71.587826 0.000001 -24.042586 45.522005 -9.511527 -0.166787 0.000000 
